<?xml version="1.0" encoding="utf-8"?>
<!-- Generator: Adobe Illustrator 21.0.0, SVG Export Plug-In . SVG Version: 6.00 Build 0)  -->
<svg version="1.1" id="Layer_1" xmlns="http://www.w3.org/2000/svg" xmlns:xlink="http://www.w3.org/1999/xlink" x="0px" y="0px"
	 viewBox="0 0 81.975 40" enable-background="new 0 0 81.975 40" xml:space="preserve">
<path fill-rule="evenodd" clip-rule="evenodd" fill="#7EBB0A" d="M78.721,25.471L78.721,25.471h0.431
	c0.136,0,0.253-0.013,0.349-0.039c0.095-0.026,0.172-0.065,0.23-0.115c0.058-0.05,0.101-0.11,0.126-0.183
	c0.027-0.072,0.039-0.156,0.039-0.251c0-0.092-0.011-0.172-0.035-0.242c-0.024-0.071-0.062-0.128-0.116-0.172
	c-0.053-0.046-0.123-0.079-0.211-0.102c-0.086-0.022-0.194-0.034-0.323-0.034h-0.491V25.471z M78.721,25.896L78.721,25.896h0.298
	c0.064,0,0.112,0.008,0.142,0.026c0.031,0.017,0.057,0.042,0.08,0.074l0.748,1.124c0.039,0.062,0.1,0.092,0.182,0.092h0.55
	l-0.848-1.241c-0.027-0.048-0.055-0.092-0.087-0.129c-0.031-0.037-0.068-0.068-0.11-0.093c0.262-0.062,0.46-0.176,0.593-0.341
	c0.134-0.164,0.199-0.363,0.199-0.598c0-0.303-0.104-0.534-0.309-0.69c-0.205-0.155-0.521-0.233-0.948-0.233h-1.071v3.325h0.58
	V25.896z M76.913,25.559L76.913,25.559c0,0.221,0.028,0.433,0.082,0.636c0.055,0.204,0.132,0.395,0.235,0.571
	c0.101,0.177,0.223,0.338,0.364,0.483c0.142,0.143,0.299,0.266,0.473,0.369c0.173,0.103,0.361,0.182,0.562,0.238
	c0.201,0.056,0.41,0.084,0.628,0.084c0.328,0,0.634-0.061,0.922-0.185c0.286-0.125,0.536-0.294,0.747-0.509
	c0.212-0.214,0.38-0.467,0.502-0.755c0.123-0.29,0.184-0.599,0.184-0.932c0-0.221-0.028-0.434-0.084-0.64
	c-0.055-0.205-0.135-0.398-0.237-0.575c-0.101-0.177-0.222-0.338-0.365-0.486c-0.143-0.146-0.301-0.271-0.474-0.373
	c-0.174-0.103-0.362-0.183-0.564-0.24c-0.202-0.057-0.412-0.086-0.631-0.086c-0.327,0-0.634,0.064-0.918,0.189
	c-0.286,0.125-0.534,0.296-0.745,0.513c-0.21,0.217-0.376,0.471-0.498,0.763C76.974,24.915,76.913,25.226,76.913,25.559z
	 M76.541,25.557L76.541,25.557c0-0.25,0.033-0.493,0.096-0.724c0.065-0.233,0.156-0.451,0.274-0.652
	c0.118-0.203,0.26-0.386,0.426-0.553c0.165-0.164,0.349-0.307,0.55-0.426c0.2-0.119,0.417-0.211,0.647-0.275
	c0.232-0.064,0.472-0.097,0.721-0.097c0.251,0,0.492,0.033,0.724,0.097c0.233,0.064,0.447,0.157,0.649,0.275
	c0.2,0.119,0.383,0.262,0.549,0.426c0.166,0.167,0.309,0.35,0.427,0.553c0.118,0.201,0.208,0.418,0.273,0.652
	c0.064,0.231,0.097,0.474,0.097,0.724c0,0.248-0.033,0.489-0.097,0.72c-0.065,0.233-0.155,0.449-0.273,0.651
	c-0.118,0.201-0.26,0.383-0.427,0.549c-0.167,0.166-0.349,0.307-0.549,0.427c-0.202,0.119-0.417,0.211-0.649,0.275
	c-0.232,0.064-0.473,0.097-0.724,0.097c-0.25,0-0.49-0.032-0.721-0.097c-0.23-0.065-0.447-0.156-0.647-0.275
	c-0.201-0.12-0.385-0.261-0.55-0.427c-0.166-0.166-0.307-0.348-0.426-0.549c-0.118-0.202-0.21-0.418-0.274-0.649
	C76.574,26.049,76.541,25.808,76.541,25.557z M60.086,28.983L60.086,28.983h3.851l-0.389,1.571c0.72-0.657,1.392-1.121,2.025-1.401
	c0.632-0.277,1.348-0.415,2.147-0.415c0.858,0,1.5,0.152,1.922,0.456c0.427,0.305,0.722,0.758,0.892,1.359
	c0.821-0.702,1.532-1.183,2.131-1.436c0.595-0.252,1.284-0.38,2.069-0.38c1.157,0,1.975,0.342,2.452,1.031
	c0.479,0.685,0.536,1.758,0.175,3.218l-1.674,6.761h-4.136l1.518-6.131c0.121-0.488,0.118-0.851-0.014-1.087
	c-0.185-0.37-0.485-0.558-0.896-0.558c-0.485,0-0.923,0.178-1.307,0.526c-0.386,0.354-0.67,0.917-0.863,1.696l-1.374,5.554h-4.139
	l1.468-5.93c0.118-0.475,0.17-0.793,0.159-0.963c-0.023-0.27-0.121-0.488-0.295-0.655c-0.176-0.166-0.409-0.248-0.699-0.248
	c-0.475,0-0.906,0.18-1.299,0.536c-0.394,0.36-0.692,0.948-0.894,1.764l-1.361,5.495h-4.135L60.086,28.983z M48.499,34.384
	L48.499,34.384c-0.238,0.962-0.22,1.671,0.059,2.128c0.273,0.46,0.703,0.692,1.292,0.692c0.595,0,1.14-0.229,1.633-0.682
	c0.495-0.454,0.866-1.177,1.114-2.18c0.23-0.931,0.209-1.626-0.063-2.083c-0.272-0.453-0.692-0.681-1.26-0.681
	c-0.602,0-1.157,0.232-1.662,0.692C49.106,32.733,48.733,33.44,48.499,34.384z M44.362,34.395L44.362,34.395
	c-0.437,1.764-0.136,3.189,0.907,4.276c0.852,0.878,2.14,1.319,3.871,1.319c1.941,0,3.591-0.53,4.949-1.586
	c1.359-1.058,2.245-2.414,2.655-4.069c0.365-1.474,0.229-2.715-0.407-3.723c-0.791-1.249-2.266-1.875-4.422-1.875
	c-1.886,0-3.512,0.533-4.887,1.598C45.657,31.398,44.769,32.755,44.362,34.395z M38.768,35.54L38.768,35.54
	c-0.326,0.574-0.708,0.999-1.143,1.276c-0.439,0.277-0.926,0.417-1.466,0.417c-0.65,0-1.127-0.229-1.43-0.689
	c-0.305-0.461-0.35-1.131-0.13-2.017c0.245-0.993,0.64-1.734,1.184-2.225c0.543-0.488,1.158-0.734,1.839-0.734
	c0.543,0,0.944,0.114,1.208,0.35c0.264,0.232,0.399,0.578,0.407,1.037l4.01-0.515c-0.07-1.211-0.493-2.132-1.259-2.759
	c-0.768-0.629-2.028-0.944-3.786-0.944c-1.256,0-2.328,0.166-3.213,0.498c-0.56,0.207-1.131,0.529-1.719,0.959
	c-0.587,0.428-1.084,0.913-1.495,1.453c-0.563,0.737-0.978,1.66-1.253,2.768c-0.263,1.062-0.318,1.913-0.165,2.554
	c0.148,0.644,0.439,1.201,0.871,1.678c0.429,0.478,0.998,0.821,1.706,1.035C33.638,39.892,34.563,40,35.705,40
	c1.183,0,2.2-0.166,3.047-0.495c0.85-0.332,1.595-0.795,2.238-1.394c0.639-0.598,1.171-1.308,1.588-2.125L38.768,35.54z
	 M5.975,8.354L5.975,8.354c-0.531,0-0.966,0.437-0.966,0.972v1.816c0,0.534,0.435,0.972,0.966,0.972h3.111
	c0.531,0,0.967-0.439,0.967-0.972V9.325c0-0.534-0.435-0.972-0.967-0.972H5.975z M5.199,3.886L5.199,3.886
	c-0.532,0-0.967,0.438-0.967,0.973v0.908c0,0.535,0.436,0.972,0.967,0.972h2.069c0.53,0,0.966-0.438,0.966-0.972V4.858
	c0-0.534-0.434-0.973-0.966-0.973H5.199z M18.77,0.02L18.77,0.02c-0.486,0-0.884,0.4-0.884,0.89v0.829c0,0.49,0.398,0.89,0.884,0.89
	h1.892c0.486,0,0.883-0.401,0.883-0.89V0.91c0-0.489-0.397-0.89-0.883-0.89H18.77z M0.792,7.309L0.792,7.309
	C0.356,7.309,0,7.667,0,8.105v0.744c0,0.438,0.357,0.798,0.792,0.798h1.696c0.435,0,0.792-0.36,0.792-0.798V8.105
	c0-0.437-0.356-0.796-0.792-0.796H0.792z M34.542,20.037L34.542,20.037c0,0,0,0,0.001,0c0.844,0.073,1.408-0.025,1.803-0.274
	c0.392-0.248,0.626-0.648,0.805-1.181c0.425-1.273,0.849-2.541,1.27-3.802c0.418-1.255,0.836-2.503,1.25-3.745
	c0.347-1.036-1.02-1.843-2.547-2.132c-1.57-0.297-3.319-0.05-3.464,1.085c-0.173,1.354-0.347,2.708-0.52,4.064
	c-0.174,1.354-0.347,2.712-0.519,4.07c-0.072,0.567-0.024,1.01,0.262,1.33C33.167,19.769,33.683,19.963,34.542,20.037z
	 M33.594,24.126L33.594,24.126c-0.625-0.03-1.159-0.246-1.508-0.573c-0.35-0.328-0.514-0.768-0.404-1.236
	c0.109-0.468,0.469-0.871,0.961-1.146c0.486-0.272,1.103-0.414,1.721-0.366c0.618,0.049,1.125,0.278,1.451,0.603
	c0.326,0.325,0.475,0.746,0.372,1.197c-0.103,0.451-0.442,0.846-0.906,1.121C34.814,24.002,34.218,24.157,33.594,24.126z
	 M10.503,2.647L10.503,2.647h2.554h1.497c1.818,0,0.307,0.807,2.796,0.864c1.188,0.028,2.388,0.024,3.579,0.024
	c1.312-0.015,1.418-1.197,1.426-1.357V0.861c0-0.425,0.347-0.751,0.769-0.775c1.721-0.096,2.546-0.125,4.725-0.018
	C40.022,0.871,49.546,7.993,49.546,16.66c0,4.651-2.82,8.906-7.244,11.93h-0.001c-1.175-0.756-2.753-0.924-4.102-0.924
	c-1.206,0-2.454,0.141-3.589,0.566c-0.706,0.263-1.366,0.653-1.975,1.098c-0.648,0.474-1.228,1.03-1.715,1.669
	c-0.478,0.626-0.839,1.329-1.109,2.066c-1.183,0.147-2.395,0.235-3.63,0.257c-2.4,1.972-5.597,3.752-9.798,5.214
	c1.314-2.07,2.193-4.034,2.794-5.828C8.214,30.525,0.383,23.128,1.941,14.521c0.116-0.639,0.528-1.181,1.173-1.181h4.257h2.591
	c0.111-0.013,0.236-0.02,0.375-0.021c0.925-0.011,1.25-0.602,1.365-1.006l0.044-0.197c0.018-0.106,0.019-0.174,0.019-0.174
	l0.321-3.261c0.239-1.235-1.221-1.078-1.272-1.078h0h-0.31c-0.531,0-0.967-0.438-0.967-0.973V3.62
	C9.536,3.085,9.972,2.647,10.503,2.647z M20.299,6.741l-0.511,10.733l0.63-5.231l0.547-4.559c0.011-0.05,0.016-0.103,0.016-0.157
	C20.982,7.126,20.685,6.795,20.299,6.741l-2.281-0.378l-2.339-0.389h-0.001c-0.058-0.013-0.117-0.02-0.178-0.02
	c-0.414,0-0.753,0.317-0.79,0.721l-0.001,0.002c-0.166,1.584-0.324,3.158-0.487,4.714l-0.567,5.409
	c-0.092,0.876,0,1.889,0.279,3.032c0.171,0.703,0.552,1.385,1.137,2.047c0.577,0.654,1.223,1.159,1.941,1.511
	c0.709,0.349,1.595,0.581,2.659,0.701c1.04,0.122,1.991,0.179,2.852,0.185c1.46,0.01,2.7-0.151,3.744-0.481
	c0.738-0.234,1.461-0.641,2.174-1.226c0.702-0.575,1.255-1.258,1.654-2.035c0.401-0.782,0.672-1.615,0.806-2.513l0.679-4.589
	l0.593-3.999l0-0.005c0.017-0.056,0.026-0.116,0.026-0.177c0-0.29-0.203-0.534-0.474-0.596c-0.011-0.012-0.029-0.02-0.055-0.024
	l-1.846-0.306c-0.578-0.097-1.156-0.194-1.749-0.293h-0.003c-0.047-0.009-0.095-0.014-0.145-0.014c-0.391,0-0.715,0.282-0.781,0.653
	l-0.001,0V8.67l-0.002,0.013l0,0.005l-0.004,0.03l-0.573,4.239l-0.67,4.938c-0.12,0.883-0.469,1.553-1.044,2.004
	c-0.585,0.457-1.344,0.668-2.282,0.628c-0.965-0.039-1.7-0.322-2.197-0.858c-0.499-0.539-0.698-1.268-0.586-2.195L20.299,6.741z"/>
</svg>
