<?xml version="1.0" encoding="utf-8"?>
<!-- Generator: Adobe Illustrator 16.0.0, SVG Export Plug-In . SVG Version: 6.00 Build 0)  -->
<!DOCTYPE svg PUBLIC "-//W3C//DTD SVG 1.1//EN" "http://www.w3.org/Graphics/SVG/1.1/DTD/svg11.dtd">
<svg version="1.1" id="Layer_1" xmlns="http://www.w3.org/2000/svg" xmlns:xlink="http://www.w3.org/1999/xlink" x="0px" y="0px"
	 width="190px" height="33px" viewBox="0 0 190 33" enable-background="new 0 0 190 33" xml:space="preserve">
<g>
	<g>
		<path fill="#E21E26" d="M126.652,0H99.1C97.273,0,96,1.743,96,3.568v26.471C96,31.86,97.268,33,99.089,33h27.573
			c1.82,0,3.254-1.14,3.254-2.961V3.568C129.916,1.743,128.477,0,126.652,0z M112.701,28.816c-6.184,0-8.947-4.928-8.947-9.809
			c0-6.874,4.769-14.709,8.947-14.709c4.186,0,8.956,7.835,8.956,14.709C121.657,23.889,118.891,28.816,112.701,28.816z
			 M19.657,8.166l-0.568-0.33c-0.639-0.369-1.439-0.178-1.792,0.426L10.171,21.46L3.043,8.262c-0.35-0.604-1.152-0.795-1.791-0.426
			l-0.569,0.33C0.05,8.532-0.188,9.323,0.162,9.93l8.101,13.995c0.499,0.792,1.246,0.878,1.908,0.878
			c0.66,0,1.409-0.086,1.909-0.878L20.179,9.93C20.53,9.323,20.292,8.532,19.657,8.166z M47.851,8.165l-0.569-0.329
			c-0.637-0.369-1.439-0.178-1.789,0.426L38.363,21.46L31.237,8.262c-0.353-0.604-1.153-0.795-1.794-0.426l-0.566,0.329
			c-0.635,0.367-0.873,1.158-0.522,1.765l8.101,13.995c0.5,0.792,1.248,0.878,1.907,0.878c0.663,0,1.411-0.086,1.91-0.878
			l8.101-13.996C48.723,9.323,48.484,8.532,47.851,8.165z M57.844,8.527c-0.499-0.793-1.247-0.879-1.908-0.879
			c-0.66,0-1.41,0.086-1.907,0.879l-8.102,13.995c-0.351,0.605-0.112,1.398,0.521,1.766l0.568,0.326
			c0.639,0.371,1.442,0.181,1.792-0.424l7.127-13.2l7.128,13.2c0.35,0.604,1.153,0.795,1.791,0.424l0.568-0.326
			c0.635-0.367,0.872-1.16,0.522-1.766L57.844,8.527z M24.548,7.725h-0.619c-0.694,0-1.259,0.562-1.259,1.258V23.59
			c0,0.694,0.564,1.26,1.259,1.26h0.619c0.689,0,1.258-0.565,1.258-1.26V8.982C25.806,8.286,25.237,7.725,24.548,7.725z
			 M64.278,8.974c0.201-0.079,0.519-0.12,0.953-0.12h2.791c0.189,0,0.34-0.055,0.449-0.165l0.001-0.001
			c0.106-0.108,0.162-0.259,0.162-0.449c0-0.216-0.049-0.386-0.143-0.511c-0.111-0.143-0.268-0.216-0.47-0.216h-2.811
			c-0.084,0-0.182,0.002-0.289,0.004c-0.098,0.004-0.182,0.008-0.251,0.013c-0.067,0.005-0.138,0.01-0.21,0.017H64.46
			c-0.065,0.007-0.126,0.013-0.185,0.022l-0.007,0.002c-0.217,0.04-0.42,0.1-0.608,0.179V7.746c-0.189,0.08-0.362,0.181-0.521,0.301
			l-0.001,0.001c-0.194,0.15-0.342,0.32-0.441,0.507c-0.104,0.191-0.154,0.399-0.154,0.622v2.917c0,0.172,0.021,0.328,0.061,0.471
			c0.042,0.147,0.106,0.28,0.191,0.396l0.002-0.001c0.07,0.101,0.165,0.197,0.282,0.287c0.109,0.087,0.244,0.172,0.404,0.254
			l0.003,0.002c0.134,0.067,0.267,0.127,0.398,0.173c0.13,0.049,0.263,0.084,0.396,0.108c0.119,0.021,0.27,0.037,0.455,0.047
			c0.188,0.011,0.403,0.015,0.646,0.015h2.617c0.198,0,0.355-0.063,0.468-0.19c0.104-0.118,0.157-0.28,0.157-0.486
			c0-0.45-0.208-0.674-0.625-0.674h-2.617c-0.482,0-0.835-0.047-1.061-0.145c-0.161-0.068-0.241-0.161-0.241-0.273V9.172
			C64.08,9.093,64.146,9.026,64.278,8.974z M89.882,12.715c-0.11-0.146-0.267-0.22-0.469-0.22H87.06
			c-0.269,0-0.485-0.007-0.652-0.017c-0.191-0.01-0.323-0.025-0.398-0.04c-0.21-0.045-0.362-0.104-0.456-0.179
			c-0.064-0.054-0.098-0.118-0.098-0.193V8.124c0-0.139-0.034-0.259-0.098-0.356c-0.071-0.106-0.173-0.179-0.305-0.216
			c-0.052-0.016-0.124-0.025-0.217-0.031c-0.086-0.007-0.188-0.009-0.31-0.009c-0.407,0-0.609,0.204-0.609,0.61v3.944
			c0,0.382,0.1,0.704,0.304,0.972c0.197,0.259,0.487,0.454,0.872,0.583c0.233,0.08,0.514,0.136,0.836,0.173
			c0.316,0.035,0.675,0.052,1.072,0.052h2.412c0.188,0,0.339-0.055,0.448-0.166c0.106-0.109,0.162-0.257,0.162-0.448
			C90.023,13.012,89.975,12.841,89.882,12.715L89.882,12.715z M75.717,12.646c-0.188-0.102-0.442-0.151-0.615-0.151h-2.759
			c-0.424,0-0.734-0.045-0.933-0.134c-0.135-0.062-0.204-0.146-0.204-0.254v-0.727h3.896c0.204,0,0.363-0.066,0.478-0.199
			c0.104-0.122,0.157-0.29,0.157-0.503c0-0.433-0.209-0.649-0.631-0.649h-3.909V9.24c0-0.104,0.095-0.188,0.284-0.258
			c0.266-0.096,0.678-0.145,1.237-0.145l1.251,0.002h0.484l0.092,0.004l0.101,0.003c0.025,0.004,0.051,0.007,0.079,0.007h0.303
			c0.188,0,0.339-0.056,0.446-0.167c0.107-0.107,0.161-0.258,0.161-0.448c0-0.216-0.048-0.385-0.143-0.511
			c-0.107-0.143-0.265-0.216-0.465-0.216h-2.642c-0.551,0-1.024,0.065-1.418,0.196c-0.409,0.137-0.731,0.342-0.963,0.619
			c-0.11,0.134-0.194,0.276-0.253,0.431c-0.058,0.154-0.085,0.314-0.085,0.482v2.906c0,0.311,0.085,0.586,0.259,0.822
			c0.169,0.227,0.415,0.414,0.738,0.558c0.245,0.108,0.503,0.188,0.773,0.24c0.274,0.054,0.562,0.079,0.857,0.079h2.807
			c0.18,0,0.446-0.069,0.64-0.208c0.172-0.121,0.295-0.298,0.295-0.529C76.036,12.899,75.903,12.747,75.717,12.646z M82.756,12.715
			c-0.108-0.146-0.265-0.22-0.468-0.22h-2.355c-0.268,0-0.483-0.007-0.651-0.017c-0.19-0.01-0.323-0.025-0.397-0.04
			c-0.21-0.045-0.361-0.104-0.456-0.179c-0.065-0.054-0.097-0.118-0.097-0.193V8.124c0-0.139-0.033-0.26-0.1-0.356
			c-0.069-0.106-0.172-0.179-0.304-0.216c-0.052-0.016-0.125-0.025-0.218-0.031c-0.085-0.007-0.189-0.009-0.309-0.009
			c-0.188,0-0.339,0.054-0.448,0.163c-0.106,0.108-0.162,0.258-0.162,0.447v3.944c0,0.382,0.102,0.704,0.304,0.972
			c0.197,0.259,0.489,0.454,0.874,0.583c0.233,0.08,0.513,0.136,0.835,0.173c0.316,0.035,0.674,0.052,1.072,0.052h2.412
			c0.188,0,0.339-0.055,0.448-0.165c0.106-0.11,0.161-0.258,0.161-0.449C82.897,13.012,82.85,12.841,82.756,12.715L82.756,12.715z
			 M185.099,14.521l-2.818-0.737c-1.122-0.289-1.442-0.479-1.442-1.091v-0.126c0-0.77,0.607-1.058,2.465-1.058
			c2.501,0,5.114,0.753,5.114,0.753l0.816-4.116c0,0-2.851-0.578-5.736-0.578c-4.388,0-7.369,0.931-7.369,5.031v0.159
			c0,3.044,1.539,4.165,4.391,4.935l3.329,0.897c1.156,0.319,1.444,0.577,1.444,1.215v0.066c0,0.672-0.643,0.929-2.146,0.929
			c-2.884,0-6.568-0.737-6.568-0.737l-0.32,3.941c0,0,3.3,0.833,6.889,0.833c5.124,0,6.854-2.284,6.854-4.903
			C190,17.316,188.624,15.449,185.099,14.521z M159.357,11.938h4.813v12.99h5.006v-12.99h4.812l0.178-4.427h-15.042L159.357,11.938z
			 M151.723,7.512l-4.028,9.924h-0.293l-4.191-9.924h-4.612l-1.104,17.417h4.71l0.489-8.398h0.292l2.987,6.815h3.183l2.665-6.815
			h0.292l0.553,8.398h4.84l-1.105-17.417H151.723z"/>
	</g>
</g>
</svg>
